<svg width="1638" height="171" viewBox="0 0 1638 171" fill="none" xmlns="http://www.w3.org/2000/svg">
<path d="M66.7969 95.7422H22.9688L22.7344 71.6016H59.5312C66.0156 71.6016 71.3281 70.7812 75.4688 69.1406C79.6094 67.4219 82.6953 64.9609 84.7266 61.7578C86.8359 58.4766 87.8906 54.4922 87.8906 49.8047C87.8906 44.4922 86.875 40.1953 84.8438 36.9141C82.8906 33.6328 79.8047 31.25 75.5859 29.7656C71.4453 28.2812 66.0938 27.5391 59.5312 27.5391H35.1562V170.625H0V0H59.5312C69.4531 0 78.3203 0.9375 86.1328 2.8125C94.0234 4.6875 100.703 7.53906 106.172 11.3672C111.641 15.1953 115.82 20.0391 118.711 25.8984C121.602 31.6797 123.047 38.5547 123.047 46.5234C123.047 53.5547 121.445 60.0391 118.242 65.9766C115.117 71.9141 110.156 76.7578 103.359 80.5078C96.6406 84.2578 87.8516 86.3281 76.9922 86.7188L66.7969 95.7422ZM65.2734 170.625H13.3594L27.0703 143.203H65.2734C71.4453 143.203 76.4844 142.227 80.3906 140.273C84.2969 138.242 87.1875 135.508 89.0625 132.07C90.9375 128.633 91.875 124.688 91.875 120.234C91.875 115.234 91.0156 110.898 89.2969 107.227C87.6562 103.555 85 100.742 81.3281 98.7891C77.6562 96.7578 72.8125 95.7422 66.7969 95.7422H32.9297L33.1641 71.6016H75.3516L83.4375 81.0938C93.8281 80.9375 102.188 82.7734 108.516 86.6016C114.922 90.3516 119.57 95.2344 122.461 101.25C125.43 107.266 126.914 113.711 126.914 120.586C126.914 131.523 124.531 140.742 119.766 148.242C115 155.664 108.008 161.25 98.7891 165C89.6484 168.75 78.4766 170.625 65.2734 170.625ZM222.656 29.1797L176.25 170.625H138.867L202.266 0H226.055L222.656 29.1797ZM261.211 170.625L214.688 29.1797L210.938 0H234.961L298.711 170.625H261.211ZM259.102 107.109V134.648H168.984V107.109H259.102ZM453.398 0V170.625H418.242L349.688 56.25V170.625H314.531V0H349.688L418.359 114.492V0H453.398ZM521.367 0V170.625H486.328V0H521.367ZM680.508 109.805H637.031V82.3828H680.508C687.227 82.3828 692.695 81.2891 696.914 79.1016C701.133 76.8359 704.219 73.7109 706.172 69.7266C708.125 65.7422 709.102 61.25 709.102 56.25C709.102 51.1719 708.125 46.4453 706.172 42.0703C704.219 37.6953 701.133 34.1797 696.914 31.5234C692.695 28.8672 687.227 27.5391 680.508 27.5391H649.219V170.625H614.062V0H680.508C693.867 0 705.312 2.42188 714.844 7.26562C724.453 12.0313 731.797 18.6328 736.875 27.0703C741.953 35.5078 744.492 45.1562 744.492 56.0156C744.492 67.0312 741.953 76.5625 736.875 84.6094C731.797 92.6562 724.453 98.8672 714.844 103.242C705.312 107.617 693.867 109.805 680.508 109.805ZM806.133 0V170.625H771.094V0H806.133ZM962.461 143.203V170.625H841.523V143.203H962.461ZM960.703 19.5703L857.109 170.625H832.383V150.469L936.797 0H960.703V19.5703ZM948.633 0V27.5391H832.5V0H948.633ZM1108.24 143.203V170.625H987.305V143.203H1108.24ZM1106.48 19.5703L1002.89 170.625H978.164V150.469L1082.58 0H1106.48V19.5703ZM1094.41 0V27.5391H978.281V0H1094.41ZM1245.12 143.203V170.625H1154.3V143.203H1245.12ZM1165.78 0V170.625H1130.62V0H1165.78ZM1233.28 69.4922V96.2109H1154.3V69.4922H1233.28ZM1245 0V27.5391H1154.3V0H1245ZM1265.62 0H1329.26C1342.3 0 1353.52 1.95313 1362.89 5.85938C1372.34 9.76562 1379.61 15.5469 1384.69 23.2031C1389.77 30.8594 1392.3 40.2734 1392.3 51.4453C1392.3 60.5859 1390.74 68.4375 1387.62 75C1384.57 81.4844 1380.23 86.9141 1374.61 91.2891C1369.06 95.5859 1362.54 99.0234 1355.04 101.602L1343.91 107.461H1288.59L1288.36 80.0391H1329.49C1335.66 80.0391 1340.78 78.9453 1344.84 76.7578C1348.91 74.5703 1351.95 71.5234 1353.98 67.6172C1356.09 63.7109 1357.15 59.1797 1357.15 54.0234C1357.15 48.5547 1356.13 43.8281 1354.1 39.8438C1352.07 35.8594 1348.98 32.8125 1344.84 30.7031C1340.7 28.5938 1335.51 27.5391 1329.26 27.5391H1300.78V170.625H1265.62V0ZM1361.02 170.625L1322.11 94.5703L1359.26 94.3359L1398.63 168.984V170.625H1361.02ZM1456.76 0V170.625H1421.72V0H1456.76ZM1561.17 29.1797L1514.77 170.625H1477.38L1540.78 0H1564.57L1561.17 29.1797ZM1599.73 170.625L1553.2 29.1797L1549.45 0H1573.48L1637.23 170.625H1599.73ZM1597.62 107.109V134.648H1507.5V107.109H1597.62Z" fill="#020202"/>
</svg>
